<?xml version="1.0" encoding="UTF-8" standalone="no"?>
<!-- Created with Inkscape (http://www.inkscape.org/) -->
<svg
   xmlns:dc="http://purl.org/dc/elements/1.1/"
   xmlns:cc="http://creativecommons.org/ns#"
   xmlns:rdf="http://www.w3.org/1999/02/22-rdf-syntax-ns#"
   xmlns:svg="http://www.w3.org/2000/svg"
   xmlns="http://www.w3.org/2000/svg"
   xmlns:sodipodi="http://sodipodi.sourceforge.net/DTD/sodipodi-0.dtd"
   xmlns:inkscape="http://www.inkscape.org/namespaces/inkscape"
   width="205.56604"
   height="122.17389"
   id="svg2"
   sodipodi:version="0.32"
   inkscape:version="0.46"
   sodipodi:docname="demuxfs.svg"
   inkscape:output_extension="org.inkscape.output.svg.inkscape"
   version="1.0">
  <defs
     id="defs4">
    <inkscape:perspective
       sodipodi:type="inkscape:persp3d"
       inkscape:vp_x="0 : 526.18109 : 1"
       inkscape:vp_y="0 : 1000 : 0"
       inkscape:vp_z="744.09448 : 526.18109 : 1"
       inkscape:persp3d-origin="372.04724 : 350.78739 : 1"
       id="perspective10" />
    <inkscape:perspective
       id="perspective3198"
       inkscape:persp3d-origin="0.5 : 0.33333333 : 1"
       inkscape:vp_z="1 : 0.5 : 1"
       inkscape:vp_y="0 : 1000 : 0"
       inkscape:vp_x="0 : 0.5 : 1"
       sodipodi:type="inkscape:persp3d" />
    <inkscape:perspective
       id="perspective4278"
       inkscape:persp3d-origin="0.5 : 0.33333333 : 1"
       inkscape:vp_z="1 : 0.5 : 1"
       inkscape:vp_y="0 : 1000 : 0"
       inkscape:vp_x="0 : 0.5 : 1"
       sodipodi:type="inkscape:persp3d" />
  </defs>
  <sodipodi:namedview
     id="base"
     pagecolor="#ffffff"
     bordercolor="#666666"
     borderopacity="1.0"
     gridtolerance="10000"
     guidetolerance="10"
     objecttolerance="10"
     inkscape:pageopacity="0.0"
     inkscape:pageshadow="2"
     inkscape:zoom="2.7095915"
     inkscape:cx="110.01917"
     inkscape:cy="61.086945"
     inkscape:document-units="px"
     inkscape:current-layer="layer1"
     showgrid="false"
     inkscape:window-width="1016"
     inkscape:window-height="690"
     inkscape:window-x="64"
     inkscape:window-y="0"
     showguides="true"
     inkscape:guide-bbox="true"
     inkscape:window-maximized="0">
    <sodipodi:guide
       orientation="0,1"
       position="-125.86916,721.51837"
       id="guide2404" />
    <sodipodi:guide
       orientation="0,1"
       position="-149.86029,683.63765"
       id="guide2406" />
    <sodipodi:guide
       orientation="1,0"
       position="-244.62522,695.12814"
       id="guide3186" />
  </sodipodi:namedview>
  <metadata
     id="metadata7">
    <rdf:RDF>
      <cc:Work
         rdf:about="">
        <dc:format>image/svg+xml</dc:format>
        <dc:type
           rdf:resource="http://purl.org/dc/dcmitype/StillImage" />
      </cc:Work>
    </rdf:RDF>
  </metadata>
  <g
     inkscape:label="Layer 1"
     inkscape:groupmode="layer"
     id="layer1"
     transform="translate(-286.59974,-202.28329)">
    <path
       style="fill:#2ea024;fill-opacity:0.39037434;fill-rule:nonzero;stroke:#000000;stroke-width:0.08833826;stroke-linecap:butt;stroke-linejoin:bevel;stroke-miterlimit:4;stroke-opacity:1;stroke-dasharray:none;stroke-dashoffset:0;marker:none;visibility:visible;display:inline;overflow:visible;enable-background:accumulate"
       d="m 300.82709,226.46977 177.93969,0"
       id="path3537-8"
       sodipodi:nodetypes="cc" />
    <path
       style="fill:#2ea024;fill-opacity:0.39037434;fill-rule:nonzero;stroke:#000000;stroke-width:0.392001;stroke-linecap:butt;stroke-linejoin:bevel;stroke-miterlimit:4;stroke-opacity:1;stroke-dasharray:none;stroke-dashoffset:0;marker:none;visibility:visible;display:inline;overflow:visible;enable-background:accumulate"
       d="m 349.25526,209.61691 c 0,0 10.14757,3.15946 10.93672,5.83126 1.17629,3.98258 1.15523,11.35622 1.15523,11.35622"
       id="path3539-8"
       sodipodi:nodetypes="csc" />
    <path
       style="fill:#2ea024;fill-opacity:0.39037434;fill-rule:nonzero;stroke:#000000;stroke-width:0.392001;stroke-linecap:butt;stroke-linejoin:bevel;stroke-miterlimit:4;stroke-opacity:1;stroke-dasharray:none;stroke-dashoffset:0;marker:none;visibility:visible;display:inline;overflow:visible;enable-background:accumulate"
       d="m 373.21356,209.61691 c 0,0 -10.20883,3.12202 -10.85786,5.83127 -1.05799,4.41637 -0.97158,11.27734 -0.97158,11.27734"
       id="path3541-9"
       sodipodi:nodetypes="csc" />
    <path
       style="fill:#2ea024;fill-opacity:0.39037434;fill-rule:nonzero;stroke:#000000;stroke-width:0.392001;stroke-linecap:butt;stroke-linejoin:bevel;stroke-miterlimit:4;stroke-opacity:1;stroke-dasharray:none;stroke-dashoffset:0;marker:none;visibility:visible;display:inline;overflow:visible;enable-background:accumulate"
       d="m 391.73858,243.08007 c 0,0 -10.1134,-7.15593 -11.21919,-12.63415 -1.72325,-8.53709 -1.34979,-20.82901 -1.34979,-20.82901"
       id="path3543-7"
       sodipodi:nodetypes="csc" />
    <path
       style="fill:#2ea024;fill-opacity:0.39037434;fill-rule:nonzero;stroke:#000000;stroke-width:0.392001;stroke-linecap:butt;stroke-linejoin:bevel;stroke-miterlimit:4;stroke-opacity:1;stroke-dasharray:none;stroke-dashoffset:0;marker:none;visibility:visible;display:inline;overflow:visible;enable-background:accumulate"
       d="m 391.7062,243.08007 c 0,0 9.91583,-7.08123 11.02157,-12.60585 1.72317,-8.6094 0.79764,-20.85731 0.79764,-20.85731"
       id="path3545-7"
       sodipodi:nodetypes="csc" />
    <path
       style="fill:#2ea024;fill-opacity:0.39037434;fill-rule:nonzero;stroke:#000000;stroke-width:0.392001;stroke-linecap:butt;stroke-linejoin:bevel;stroke-miterlimit:4;stroke-opacity:1;stroke-dasharray:none;stroke-dashoffset:0;marker:none;visibility:visible;display:inline;overflow:visible;enable-background:accumulate"
       d="m 349.31427,209.61691 0,33.46316"
       id="path3547-6"
       sodipodi:nodetypes="cc" />
    <path
       style="fill:#2ea024;fill-opacity:0.39037434;fill-rule:nonzero;stroke:#000000;stroke-width:0.392001;stroke-linecap:butt;stroke-linejoin:bevel;stroke-miterlimit:4;stroke-opacity:1;stroke-dasharray:none;stroke-dashoffset:0;marker:none;visibility:visible;display:inline;overflow:visible;enable-background:accumulate"
       d="m 373.19793,209.61691 0,33.46316"
       id="path3549-4"
       sodipodi:nodetypes="cc" />
    <path
       style="fill:#2ea024;fill-opacity:0.39037434;fill-rule:nonzero;stroke:#000000;stroke-width:0.392001;stroke-linecap:butt;stroke-linejoin:bevel;stroke-miterlimit:4;stroke-opacity:1;stroke-dasharray:none;stroke-dashoffset:0;marker:none;visibility:visible;display:inline;overflow:visible;enable-background:accumulate"
       d="m 409.50417,209.61691 c 0,0 9.94592,3.27566 11.05503,5.83127 1.72841,3.98257 1.47072,11.31232 1.47072,11.31232"
       id="path3551-3"
       sodipodi:nodetypes="csc" />
    <path
       style="fill:#2ea024;fill-opacity:0.39037434;fill-rule:nonzero;stroke:#000000;stroke-width:0.392001;stroke-linecap:butt;stroke-linejoin:bevel;stroke-miterlimit:4;stroke-opacity:1;stroke-dasharray:none;stroke-dashoffset:0;marker:none;visibility:visible;display:inline;overflow:visible;enable-background:accumulate"
       d="m 434.27594,209.61691 c 0,0 -9.94593,3.27566 -11.05504,5.83127 -1.72841,3.98257 -1.07636,11.27289 -1.07636,11.27289"
       id="path3553-0"
       sodipodi:nodetypes="csc" />
    <path
       style="fill:#2ea024;fill-opacity:0.39037434;fill-rule:nonzero;stroke:#000000;stroke-width:0.392001;stroke-linecap:butt;stroke-linejoin:bevel;stroke-miterlimit:4;stroke-opacity:1;stroke-dasharray:none;stroke-dashoffset:0;marker:none;visibility:visible;display:inline;overflow:visible;enable-background:accumulate"
       d="m 409.5436,243.08007 c 0,0 9.94592,-3.27566 11.05503,-5.83127 1.72841,-3.98257 1.3524,-10.32641 1.3524,-10.32641"
       id="path3555-3"
       sodipodi:nodetypes="csc" />
    <path
       style="fill:#2ea024;fill-opacity:0.39037434;fill-rule:nonzero;stroke:#000000;stroke-width:0.392001;stroke-linecap:butt;stroke-linejoin:bevel;stroke-miterlimit:4;stroke-opacity:1;stroke-dasharray:none;stroke-dashoffset:0;marker:none;visibility:visible;display:inline;overflow:visible;enable-background:accumulate"
       d="m 434.51256,243.08007 c 0,0 -9.94593,-3.26794 -11.05504,-5.82354 -1.72841,-3.98257 -1.27355,-10.38938 -1.27355,-10.38938"
       id="path3557-0"
       sodipodi:nodetypes="csc" />
    <path
       style="fill:#2ea024;fill-opacity:0.39037434;fill-rule:nonzero;stroke:#000000;stroke-width:0.392001;stroke-linecap:butt;stroke-linejoin:bevel;stroke-miterlimit:4;stroke-opacity:1;stroke-dasharray:none;stroke-dashoffset:0;marker:none;visibility:visible;display:inline;overflow:visible;enable-background:accumulate"
       d="m 308.97321,209.61691 c 0,0 10.10367,3.39382 11.21277,5.94943 1.72841,3.98257 1.37155,11.22077 1.37155,11.22077"
       id="path3559-9"
       sodipodi:nodetypes="csc" />
    <path
       style="fill:#2ea024;fill-opacity:0.39037434;fill-rule:nonzero;stroke:#000000;stroke-width:0.392001;stroke-linecap:butt;stroke-linejoin:bevel;stroke-miterlimit:4;stroke-opacity:1;stroke-dasharray:none;stroke-dashoffset:0;marker:none;visibility:visible;display:inline;overflow:visible;enable-background:accumulate"
       d="m 339.97874,209.61691 c 0,0 -9.94593,3.39382 -11.05504,5.94943 -1.7284,3.98257 -1.45042,11.36841 -1.45042,11.36841"
       id="path3561-2"
       sodipodi:nodetypes="csc" />
    <path
       style="fill:#2ea024;fill-opacity:0.39037434;fill-rule:nonzero;stroke:#000000;stroke-width:0.392001;stroke-linecap:butt;stroke-linejoin:bevel;stroke-miterlimit:4;stroke-opacity:1;stroke-dasharray:none;stroke-dashoffset:0;marker:none;visibility:visible;display:inline;overflow:visible;enable-background:accumulate"
       d="m 308.89433,243.08007 c 0,0 10.18255,-3.01605 11.29165,-5.57166 1.72841,-3.98258 1.37155,-10.69933 1.37155,-10.69933"
       id="path3563-5"
       sodipodi:nodetypes="csc" />
    <path
       style="fill:#2ea024;fill-opacity:0.39037434;fill-rule:nonzero;stroke:#000000;stroke-width:0.392001;stroke-linecap:butt;stroke-linejoin:bevel;stroke-miterlimit:4;stroke-opacity:1;stroke-dasharray:none;stroke-dashoffset:0;marker:none;visibility:visible;display:inline;overflow:visible;enable-background:accumulate"
       d="m 339.97874,242.96896 c 0,0 -9.94593,-3.27566 -11.05504,-5.83128 -1.7284,-3.98256 -1.45042,-10.29935 -1.45042,-10.29935"
       id="path3565-4"
       sodipodi:nodetypes="csc" />
    <path
       style="fill:#2ea024;fill-opacity:0.39037434;fill-rule:nonzero;stroke:#000000;stroke-width:0.392001;stroke-linecap:butt;stroke-linejoin:bevel;stroke-miterlimit:4;stroke-opacity:1;stroke-dasharray:none;stroke-dashoffset:0;marker:none;visibility:visible;display:inline;overflow:visible;enable-background:accumulate"
       d="m 309.02037,243.08007 0,-33.46316"
       id="path3567-0"
       sodipodi:nodetypes="cc" />
    <path
       style="fill:#2ea024;fill-opacity:0.39037434;fill-rule:nonzero;stroke:#000000;stroke-width:0.08833826;stroke-linecap:butt;stroke-linejoin:bevel;stroke-miterlimit:4;stroke-opacity:1;stroke-dasharray:none;stroke-dashoffset:0;marker:none;visibility:visible;display:inline;overflow:visible;enable-background:accumulate"
       d="m 300.91874,217.97365 8.05324,0"
       id="path3569-5"
       sodipodi:nodetypes="cc" />
    <path
       style="fill:#2ea024;fill-opacity:0.39037434;fill-rule:nonzero;stroke:#000000;stroke-width:0.08833826;stroke-linecap:butt;stroke-linejoin:bevel;stroke-miterlimit:4;stroke-opacity:1;stroke-dasharray:none;stroke-dashoffset:0;marker:none;visibility:visible;display:inline;overflow:visible;enable-background:accumulate"
       d="m 300.91874,234.11438 8.0154,0"
       id="path3571-9"
       sodipodi:nodetypes="cc" />
    <path
       style="fill:#2ea024;fill-opacity:0.39037434;fill-rule:nonzero;stroke:#000000;stroke-width:0.392001;stroke-linecap:butt;stroke-linejoin:bevel;stroke-miterlimit:4;stroke-opacity:1;stroke-dasharray:none;stroke-dashoffset:0;marker:none;visibility:visible;display:inline;overflow:visible;enable-background:accumulate"
       d="m 479.98349,209.61691 c 0,0 -9.94592,3.27566 -11.05504,5.83127 -1.72841,3.98257 -0.87917,11.27289 -0.87917,11.27289"
       id="path3575-6"
       sodipodi:nodetypes="csc" />
    <path
       style="fill:#2ea024;fill-opacity:0.39037434;fill-rule:nonzero;stroke:#000000;stroke-width:0.392001;stroke-linecap:butt;stroke-linejoin:bevel;stroke-miterlimit:4;stroke-opacity:1;stroke-dasharray:none;stroke-dashoffset:0;marker:none;visibility:visible;display:inline;overflow:visible;enable-background:accumulate"
       d="m 456.16958,243.08007 c 0,0 9.94593,-3.27567 11.05502,-5.83128 1.72841,-3.98258 0.87918,-10.48417 0.87918,-10.48417"
       id="path3577-9"
       sodipodi:nodetypes="csc" />
    <text
       xml:space="preserve"
       style="font-size:7.95044327px;font-style:normal;font-weight:normal;fill:#000000;fill-opacity:1;stroke:none;font-family:Bitstream Vera Sans"
       x="316.28333"
       y="254.92165"
       id="text3579-2"><tspan
         sodipodi:role="line"
         id="tspan3581-2"
         x="316.28333"
         y="254.92165">The MPEG-2 demultiplexer filesystem</tspan></text>
    <path
       style="fill:#f6f6f6;fill-opacity:1;fill-rule:nonzero;stroke:#000000;stroke-width:0.35688657;stroke-linecap:butt;stroke-linejoin:bevel;stroke-miterlimit:4;stroke-opacity:1;stroke-dasharray:none;stroke-dashoffset:0;marker:none;visibility:visible;display:inline;overflow:visible;enable-background:accumulate"
       d="m 439.77074,226.46003 9.36817,0"
       id="path3583-4"
       sodipodi:nodetypes="cc" />
    <path
       style="fill:#f6f6f6;fill-opacity:1;fill-rule:nonzero;stroke:#000000;stroke-width:0.35688657;stroke-linecap:butt;stroke-linejoin:bevel;stroke-miterlimit:4;stroke-opacity:1;stroke-dasharray:none;stroke-dashoffset:0;marker:none;visibility:visible;display:inline;overflow:visible;enable-background:accumulate"
       d="m 327.81831,226.48462 9.36817,0"
       id="path3585-7"
       sodipodi:nodetypes="cc" />
    <path
       sodipodi:type="arc"
       style="fill:#000000;fill-opacity:1;fill-rule:evenodd;stroke:none"
       id="path4056"
       sodipodi:cx="423.53235"
       sodipodi:cy="115.18364"
       sodipodi:rx="0.5008924"
       sodipodi:ry="0.5008924"
       d="m 424.03324,115.18364 a 0.5008924,0.5008924 0 1 1 -1.00178,0 0.5008924,0.5008924 0 1 1 1.00178,0 z"
       transform="matrix(1.1778434,0,0,1.1778434,-58.966928,90.799401)" />
    <path
       transform="matrix(1.1778434,0,0,1.1778434,-76.775037,90.799401)"
       d="m 424.03324,115.18364 a 0.5008924,0.5008924 0 1 1 -1.00178,0 0.5008924,0.5008924 0 1 1 1.00178,0 z"
       sodipodi:ry="0.5008924"
       sodipodi:rx="0.5008924"
       sodipodi:cy="115.18364"
       sodipodi:cx="423.53235"
       id="path4058"
       style="fill:#000000;fill-opacity:1;fill-rule:evenodd;stroke:none"
       sodipodi:type="arc" />
    <path
       sodipodi:type="arc"
       style="fill:#000000;fill-opacity:1;fill-rule:evenodd;stroke:none"
       id="path4060"
       sodipodi:cx="423.53235"
       sodipodi:cy="115.18364"
       sodipodi:rx="0.5008924"
       sodipodi:ry="0.5008924"
       d="m 424.03324,115.18364 a 0.5008924,0.5008924 0 1 1 -1.00178,0 0.5008924,0.5008924 0 1 1 1.00178,0 z"
       transform="matrix(1.1778434,0,0,1.1778434,-30.7789,90.799401)" />
    <path
       sodipodi:type="arc"
       style="fill:#000000;fill-opacity:1;fill-rule:evenodd;stroke:none"
       id="path4062"
       sodipodi:cx="423.53235"
       sodipodi:cy="115.18364"
       sodipodi:rx="0.5008924"
       sodipodi:ry="0.5008924"
       d="m 424.03324,115.18364 a 0.5008924,0.5008924 0 1 1 -1.00178,0 0.5008924,0.5008924 0 1 1 1.00178,0 z"
       transform="matrix(1.1778434,0,0,1.1778434,-95.678222,90.799401)" />
    <path
       transform="matrix(1.1778434,0,0,1.1778434,-119.03995,90.799401)"
       d="m 424.03324,115.18364 a 0.5008924,0.5008924 0 1 1 -1.00178,0 0.5008924,0.5008924 0 1 1 1.00178,0 z"
       sodipodi:ry="0.5008924"
       sodipodi:rx="0.5008924"
       sodipodi:cy="115.18364"
       sodipodi:cx="423.53235"
       id="path4064"
       style="fill:#000000;fill-opacity:1;fill-rule:evenodd;stroke:none"
       sodipodi:type="arc" />
    <path
       sodipodi:type="arc"
       style="fill:#000000;fill-opacity:1;fill-rule:evenodd;stroke:none"
       id="path4066"
       sodipodi:cx="423.53235"
       sodipodi:cy="115.18364"
       sodipodi:rx="0.5008924"
       sodipodi:ry="0.5008924"
       d="m 424.03324,115.18364 a 0.5008924,0.5008924 0 1 1 -1.00178,0 0.5008924,0.5008924 0 1 1 1.00178,0 z"
       transform="matrix(1.1778434,0,0,1.1778434,-125.57568,90.799401)" />
    <path
       transform="matrix(1.1778434,0,0,1.1778434,-137.53466,90.799401)"
       d="m 424.03324,115.18364 a 0.5008924,0.5008924 0 1 1 -1.00178,0 0.5008924,0.5008924 0 1 1 1.00178,0 z"
       sodipodi:ry="0.5008924"
       sodipodi:rx="0.5008924"
       sodipodi:cy="115.18364"
       sodipodi:cx="423.53235"
       id="path4068"
       style="fill:#000000;fill-opacity:1;fill-rule:evenodd;stroke:none"
       sodipodi:type="arc" />
    <path
       sodipodi:type="arc"
       style="fill:#000000;fill-opacity:1;fill-rule:evenodd;stroke:none"
       id="path4070"
       sodipodi:cx="423.53235"
       sodipodi:cy="115.18364"
       sodipodi:rx="0.5008924"
       sodipodi:ry="0.5008924"
       d="m 424.03324,115.18364 a 0.5008924,0.5008924 0 1 1 -1.00178,0 0.5008924,0.5008924 0 1 1 1.00178,0 z"
       transform="matrix(1.1778434,0,0,1.1778434,-149.49365,90.799401)" />
    <path
       transform="matrix(1.1778434,0,0,1.1778434,-171.32574,90.799401)"
       d="m 424.03324,115.18364 a 0.5008924,0.5008924 0 1 1 -1.00178,0 0.5008924,0.5008924 0 1 1 1.00178,0 z"
       sodipodi:ry="0.5008924"
       sodipodi:rx="0.5008924"
       sodipodi:cy="115.18364"
       sodipodi:cx="423.53235"
       id="path4072"
       style="fill:#000000;fill-opacity:1;fill-rule:evenodd;stroke:none"
       sodipodi:type="arc" />
    <path
       sodipodi:type="arc"
       style="fill:#000000;fill-opacity:1;fill-rule:evenodd;stroke:none"
       id="path4074"
       sodipodi:cx="423.53235"
       sodipodi:cy="115.18364"
       sodipodi:rx="0.5008924"
       sodipodi:ry="0.5008924"
       d="m 424.03324,115.18364 a 0.5008924,0.5008924 0 1 1 -1.00178,0 0.5008924,0.5008924 0 1 1 1.00178,0 z"
       transform="matrix(1.1778434,0,0,1.1778434,-177.30524,90.799401)" />
    <path
       transform="matrix(1.1778434,0,0,1.1778434,-189.85522,90.799401)"
       d="m 424.03324,115.18364 a 0.5008924,0.5008924 0 1 1 -1.00178,0 0.5008924,0.5008924 0 1 1 1.00178,0 z"
       sodipodi:ry="0.5008924"
       sodipodi:rx="0.5008924"
       sodipodi:cy="115.18364"
       sodipodi:cx="423.53235"
       id="path4076"
       style="fill:#000000;fill-opacity:1;fill-rule:evenodd;stroke:none"
       sodipodi:type="arc" />
    <path
       sodipodi:type="arc"
       style="fill:#000000;fill-opacity:1;fill-rule:evenodd;stroke:none"
       id="path4078"
       sodipodi:cx="423.53235"
       sodipodi:cy="115.18364"
       sodipodi:rx="0.5008924"
       sodipodi:ry="0.5008924"
       d="m 424.03324,115.18364 a 0.5008924,0.5008924 0 1 1 -1.00178,0 0.5008924,0.5008924 0 1 1 1.00178,0 z"
       transform="matrix(1.1778434,0,0,1.1778434,-189.85522,82.316867)" />
    <path
       sodipodi:type="arc"
       style="fill:#000000;fill-opacity:1;fill-rule:evenodd;stroke:none"
       id="path4080"
       sodipodi:cx="423.53235"
       sodipodi:cy="115.18364"
       sodipodi:rx="0.5008924"
       sodipodi:ry="0.5008924"
       d="m 424.03324,115.18364 a 0.5008924,0.5008924 0 1 1 -1.00178,0 0.5008924,0.5008924 0 1 1 1.00178,0 z"
       transform="matrix(1.1778434,0,0,1.1778434,-189.85522,98.412823)" />
    <path
       sodipodi:type="arc"
       style="fill:#000000;fill-opacity:1;fill-rule:evenodd;stroke:none"
       id="path4082"
       sodipodi:cx="423.53235"
       sodipodi:cy="115.18364"
       sodipodi:rx="0.5008924"
       sodipodi:ry="0.5008924"
       d="m 424.03324,115.18364 a 0.5008924,0.5008924 0 1 1 -1.00178,0 0.5008924,0.5008924 0 1 1 1.00178,0 z"
       transform="matrix(1.1778434,0,0,1.1778434,-161.8698,90.799401)" />
    <path
       transform="matrix(1.1778434,0,0,1.1778434,-49.625687,90.799401)"
       d="m 424.03324,115.18364 a 0.5008924,0.5008924 0 1 1 -1.00178,0 0.5008924,0.5008924 0 1 1 1.00178,0 z"
       sodipodi:ry="0.5008924"
       sodipodi:rx="0.5008924"
       sodipodi:cy="115.18364"
       sodipodi:cx="423.53235"
       id="path4086"
       style="fill:#000000;fill-opacity:1;fill-rule:evenodd;stroke:none"
       sodipodi:type="arc" />
    <path
       style="fill:#2ea024;fill-opacity:0.39037434;fill-rule:nonzero;stroke:#000000;stroke-width:0.392001;stroke-linecap:butt;stroke-linejoin:bevel;stroke-miterlimit:4;stroke-opacity:1;stroke-dasharray:none;stroke-dashoffset:0;marker:none;visibility:visible;display:inline;overflow:visible;enable-background:accumulate"
       d="m 458.16929,209.61691 c 0,0 -16.35488,-0.53109 -17.46063,4.99355 -0.60052,3.00032 -0.80507,7.36706 -0.8167,11.78344 -0.0217,8.25633 0.63074,16.68617 0.63074,16.68617"
       id="path3573-4"
       sodipodi:nodetypes="cssc" />
    <path
       style="fill:#2ea024;fill-opacity:0.39037434;fill-rule:nonzero;stroke:#000000;stroke-width:0.08833826;stroke-linecap:butt;stroke-linejoin:bevel;stroke-miterlimit:4;stroke-opacity:1;stroke-dasharray:none;stroke-dashoffset:0;marker:none;visibility:visible;display:inline;overflow:visible;enable-background:accumulate"
       d="m 298.64124,287.22775 177.93969,0"
       id="path3537-8-2"
       sodipodi:nodetypes="cc" />
    <path
       style="fill:#2ea024;fill-opacity:0.39037434;fill-rule:nonzero;stroke:#000000;stroke-width:0.392001;stroke-linecap:butt;stroke-linejoin:bevel;stroke-miterlimit:4;stroke-opacity:1;stroke-dasharray:none;stroke-dashoffset:0;marker:none;visibility:visible;display:inline;overflow:visible;enable-background:accumulate"
       d="m 347.06941,270.37489 c 0,0 10.14757,3.15946 10.93671,5.83126 1.1763,3.98258 1.15524,11.35623 1.15524,11.35623"
       id="path3539-8-9"
       sodipodi:nodetypes="csc" />
    <path
       style="fill:#2ea024;fill-opacity:0.39037434;fill-rule:nonzero;stroke:#000000;stroke-width:0.392001;stroke-linecap:butt;stroke-linejoin:bevel;stroke-miterlimit:4;stroke-opacity:1;stroke-dasharray:none;stroke-dashoffset:0;marker:none;visibility:visible;display:inline;overflow:visible;enable-background:accumulate"
       d="m 371.0277,270.37489 c 0,0 -10.20882,3.12202 -10.85785,5.83127 -1.05799,4.41637 -0.97158,11.27734 -0.97158,11.27734"
       id="path3541-9-3"
       sodipodi:nodetypes="csc" />
    <path
       style="fill:#2ea024;fill-opacity:0.39037434;fill-rule:nonzero;stroke:#000000;stroke-width:0.392001;stroke-linecap:butt;stroke-linejoin:bevel;stroke-miterlimit:4;stroke-opacity:1;stroke-dasharray:none;stroke-dashoffset:0;marker:none;visibility:visible;display:inline;overflow:visible;enable-background:accumulate"
       d="m 389.55273,303.83806 c 0,0 -10.1134,-7.15593 -11.21919,-12.63416 -1.72325,-8.53709 -1.34979,-20.82901 -1.34979,-20.82901"
       id="path3543-7-8"
       sodipodi:nodetypes="csc" />
    <path
       style="fill:#2ea024;fill-opacity:0.39037434;fill-rule:nonzero;stroke:#000000;stroke-width:0.392001;stroke-linecap:butt;stroke-linejoin:bevel;stroke-miterlimit:4;stroke-opacity:1;stroke-dasharray:none;stroke-dashoffset:0;marker:none;visibility:visible;display:inline;overflow:visible;enable-background:accumulate"
       d="m 389.52035,303.83806 c 0,0 9.91583,-7.08123 11.02157,-12.60585 1.72317,-8.60941 0.79764,-20.85732 0.79764,-20.85732"
       id="path3545-7-2"
       sodipodi:nodetypes="csc" />
    <path
       style="fill:#2ea024;fill-opacity:0.39037434;fill-rule:nonzero;stroke:#000000;stroke-width:0.392001;stroke-linecap:butt;stroke-linejoin:bevel;stroke-miterlimit:4;stroke-opacity:1;stroke-dasharray:none;stroke-dashoffset:0;marker:none;visibility:visible;display:inline;overflow:visible;enable-background:accumulate"
       d="m 347.12842,270.37489 0,33.46317"
       id="path3547-6-4"
       sodipodi:nodetypes="cc" />
    <path
       style="fill:#2ea024;fill-opacity:0.39037434;fill-rule:nonzero;stroke:#000000;stroke-width:0.392001;stroke-linecap:butt;stroke-linejoin:bevel;stroke-miterlimit:4;stroke-opacity:1;stroke-dasharray:none;stroke-dashoffset:0;marker:none;visibility:visible;display:inline;overflow:visible;enable-background:accumulate"
       d="m 371.01208,270.37489 0,33.46317"
       id="path3549-4-5"
       sodipodi:nodetypes="cc" />
    <path
       style="fill:#2ea024;fill-opacity:0.39037434;fill-rule:nonzero;stroke:#000000;stroke-width:0.392001;stroke-linecap:butt;stroke-linejoin:bevel;stroke-miterlimit:4;stroke-opacity:1;stroke-dasharray:none;stroke-dashoffset:0;marker:none;visibility:visible;display:inline;overflow:visible;enable-background:accumulate"
       d="m 407.31832,270.37489 c 0,0 9.94592,3.27566 11.05503,5.83127 1.72841,3.98257 1.47072,11.31232 1.47072,11.31232"
       id="path3551-3-4"
       sodipodi:nodetypes="csc" />
    <path
       style="fill:#2ea024;fill-opacity:0.39037434;fill-rule:nonzero;stroke:#000000;stroke-width:0.392001;stroke-linecap:butt;stroke-linejoin:bevel;stroke-miterlimit:4;stroke-opacity:1;stroke-dasharray:none;stroke-dashoffset:0;marker:none;visibility:visible;display:inline;overflow:visible;enable-background:accumulate"
       d="m 432.09008,270.37489 c 0,0 -9.94592,3.27566 -11.05503,5.83127 -1.72841,3.98257 -1.07636,11.2729 -1.07636,11.2729"
       id="path3553-0-3"
       sodipodi:nodetypes="csc" />
    <path
       style="fill:#2ea024;fill-opacity:0.39037434;fill-rule:nonzero;stroke:#000000;stroke-width:0.392001;stroke-linecap:butt;stroke-linejoin:bevel;stroke-miterlimit:4;stroke-opacity:1;stroke-dasharray:none;stroke-dashoffset:0;marker:none;visibility:visible;display:inline;overflow:visible;enable-background:accumulate"
       d="m 407.35775,303.83806 c 0,0 9.94592,-3.27567 11.05503,-5.83127 1.72841,-3.98257 1.3524,-10.32642 1.3524,-10.32642"
       id="path3555-3-2"
       sodipodi:nodetypes="csc" />
    <path
       style="fill:#2ea024;fill-opacity:0.39037434;fill-rule:nonzero;stroke:#000000;stroke-width:0.392001;stroke-linecap:butt;stroke-linejoin:bevel;stroke-miterlimit:4;stroke-opacity:1;stroke-dasharray:none;stroke-dashoffset:0;marker:none;visibility:visible;display:inline;overflow:visible;enable-background:accumulate"
       d="m 432.32671,303.83806 c 0,0 -9.94593,-3.26794 -11.05504,-5.82354 -1.72841,-3.98258 -1.27355,-10.38939 -1.27355,-10.38939"
       id="path3557-0-2"
       sodipodi:nodetypes="csc" />
    <path
       style="fill:#2ea024;fill-opacity:0.39037434;fill-rule:nonzero;stroke:#000000;stroke-width:0.392001;stroke-linecap:butt;stroke-linejoin:bevel;stroke-miterlimit:4;stroke-opacity:1;stroke-dasharray:none;stroke-dashoffset:0;marker:none;visibility:visible;display:inline;overflow:visible;enable-background:accumulate"
       d="m 306.78736,270.37489 c 0,0 10.10367,3.39382 11.21277,5.94943 1.72841,3.98257 1.37155,11.22077 1.37155,11.22077"
       id="path3559-9-4"
       sodipodi:nodetypes="csc" />
    <path
       style="fill:#2ea024;fill-opacity:0.39037434;fill-rule:nonzero;stroke:#000000;stroke-width:0.392001;stroke-linecap:butt;stroke-linejoin:bevel;stroke-miterlimit:4;stroke-opacity:1;stroke-dasharray:none;stroke-dashoffset:0;marker:none;visibility:visible;display:inline;overflow:visible;enable-background:accumulate"
       d="m 337.79289,270.37489 c 0,0 -9.94593,3.39382 -11.05504,5.94943 -1.7284,3.98257 -1.45042,11.36841 -1.45042,11.36841"
       id="path3561-2-7"
       sodipodi:nodetypes="csc" />
    <path
       style="fill:#2ea024;fill-opacity:0.39037434;fill-rule:nonzero;stroke:#000000;stroke-width:0.392001;stroke-linecap:butt;stroke-linejoin:bevel;stroke-miterlimit:4;stroke-opacity:1;stroke-dasharray:none;stroke-dashoffset:0;marker:none;visibility:visible;display:inline;overflow:visible;enable-background:accumulate"
       d="m 306.70848,303.83806 c 0,0 10.18255,-3.01606 11.29165,-5.57166 1.72841,-3.98259 1.37155,-10.69933 1.37155,-10.69933"
       id="path3563-5-4"
       sodipodi:nodetypes="csc" />
    <path
       style="fill:#2ea024;fill-opacity:0.39037434;fill-rule:nonzero;stroke:#000000;stroke-width:0.392001;stroke-linecap:butt;stroke-linejoin:bevel;stroke-miterlimit:4;stroke-opacity:1;stroke-dasharray:none;stroke-dashoffset:0;marker:none;visibility:visible;display:inline;overflow:visible;enable-background:accumulate"
       d="m 337.79289,303.72694 c 0,0 -9.94593,-3.27566 -11.05504,-5.83127 -1.7284,-3.98257 -1.45042,-10.29935 -1.45042,-10.29935"
       id="path3565-4-1"
       sodipodi:nodetypes="csc" />
    <path
       style="fill:#2ea024;fill-opacity:0.39037434;fill-rule:nonzero;stroke:#000000;stroke-width:0.392001;stroke-linecap:butt;stroke-linejoin:bevel;stroke-miterlimit:4;stroke-opacity:1;stroke-dasharray:none;stroke-dashoffset:0;marker:none;visibility:visible;display:inline;overflow:visible;enable-background:accumulate"
       d="m 306.83452,303.83806 0,-33.46317"
       id="path3567-0-6"
       sodipodi:nodetypes="cc" />
    <path
       style="fill:#2ea024;fill-opacity:0.39037434;fill-rule:nonzero;stroke:#000000;stroke-width:0.08833826;stroke-linecap:butt;stroke-linejoin:bevel;stroke-miterlimit:4;stroke-opacity:1;stroke-dasharray:none;stroke-dashoffset:0;marker:none;visibility:visible;display:inline;overflow:visible;enable-background:accumulate"
       d="m 298.73289,278.73164 8.05324,0"
       id="path3569-5-1"
       sodipodi:nodetypes="cc" />
    <path
       style="fill:#2ea024;fill-opacity:0.39037434;fill-rule:nonzero;stroke:#000000;stroke-width:0.08833826;stroke-linecap:butt;stroke-linejoin:bevel;stroke-miterlimit:4;stroke-opacity:1;stroke-dasharray:none;stroke-dashoffset:0;marker:none;visibility:visible;display:inline;overflow:visible;enable-background:accumulate"
       d="m 298.73289,294.87236 8.0154,0"
       id="path3571-9-6"
       sodipodi:nodetypes="cc" />
    <path
       style="fill:#2ea024;fill-opacity:0.39037434;fill-rule:nonzero;stroke:#000000;stroke-width:0.392001;stroke-linecap:butt;stroke-linejoin:bevel;stroke-miterlimit:4;stroke-opacity:1;stroke-dasharray:none;stroke-dashoffset:0;marker:none;visibility:visible;display:inline;overflow:visible;enable-background:accumulate"
       d="m 477.79764,270.37489 c 0,0 -9.94592,3.27566 -11.05504,5.83128 -1.72841,3.98256 -0.87917,11.27289 -0.87917,11.27289"
       id="path3575-6-8"
       sodipodi:nodetypes="csc" />
    <path
       style="fill:#2ea024;fill-opacity:0.39037434;fill-rule:nonzero;stroke:#000000;stroke-width:0.392001;stroke-linecap:butt;stroke-linejoin:bevel;stroke-miterlimit:4;stroke-opacity:1;stroke-dasharray:none;stroke-dashoffset:0;marker:none;visibility:visible;display:inline;overflow:visible;enable-background:accumulate"
       d="m 453.98373,303.83806 c 0,0 9.94593,-3.27567 11.05502,-5.83128 1.72841,-3.98258 0.87918,-10.48418 0.87918,-10.48418"
       id="path3577-9-7"
       sodipodi:nodetypes="csc" />
    <text
       xml:space="preserve"
       style="font-size:7.95044327px;font-style:normal;font-weight:normal;fill:#000000;fill-opacity:1;stroke:none;font-family:Bitstream Vera Sans"
       x="314.0975"
       y="315.67963"
       id="text3579-2-0"><tspan
         sodipodi:role="line"
         id="tspan3581-2-4"
         x="314.0975"
         y="315.67963">The MPEG-2 demultiplexer filesystem</tspan></text>
    <path
       style="fill:#f6f6f6;fill-opacity:1;fill-rule:nonzero;stroke:#000000;stroke-width:0.35688657;stroke-linecap:butt;stroke-linejoin:bevel;stroke-miterlimit:4;stroke-opacity:1;stroke-dasharray:none;stroke-dashoffset:0;marker:none;visibility:visible;display:inline;overflow:visible;enable-background:accumulate"
       d="m 325.63246,287.2426 9.36817,0"
       id="path3585-7-9"
       sodipodi:nodetypes="cc" />
    <path
       sodipodi:type="arc"
       style="fill:#000000;fill-opacity:1;fill-rule:evenodd;stroke:none"
       id="path4056-6"
       sodipodi:cx="423.53235"
       sodipodi:cy="115.18364"
       sodipodi:rx="0.5008924"
       sodipodi:ry="0.5008924"
       d="m 424.03324,115.18364 a 0.5008924,0.5008924 0 1 1 -1.00178,0 0.5008924,0.5008924 0 1 1 1.00178,0 z"
       transform="matrix(1.1778434,0,0,1.1778434,-61.152779,151.55738)" />
    <path
       transform="matrix(1.1778434,0,0,1.1778434,-78.960888,151.55738)"
       d="m 424.03324,115.18364 a 0.5008924,0.5008924 0 1 1 -1.00178,0 0.5008924,0.5008924 0 1 1 1.00178,0 z"
       sodipodi:ry="0.5008924"
       sodipodi:rx="0.5008924"
       sodipodi:cy="115.18364"
       sodipodi:cx="423.53235"
       id="path4058-9"
       style="fill:#000000;fill-opacity:1;fill-rule:evenodd;stroke:none"
       sodipodi:type="arc" />
    <path
       sodipodi:type="arc"
       style="fill:#000000;fill-opacity:1;fill-rule:evenodd;stroke:none"
       id="path4060-5"
       sodipodi:cx="423.53235"
       sodipodi:cy="115.18364"
       sodipodi:rx="0.5008924"
       sodipodi:ry="0.5008924"
       d="m 424.03324,115.18364 a 0.5008924,0.5008924 0 1 1 -1.00178,0 0.5008924,0.5008924 0 1 1 1.00178,0 z"
       transform="matrix(1.1778434,0,0,1.1778434,-32.964751,151.55738)" />
    <path
       sodipodi:type="arc"
       style="fill:#000000;fill-opacity:1;fill-rule:evenodd;stroke:none"
       id="path4062-1"
       sodipodi:cx="423.53235"
       sodipodi:cy="115.18364"
       sodipodi:rx="0.5008924"
       sodipodi:ry="0.5008924"
       d="m 424.03324,115.18364 a 0.5008924,0.5008924 0 1 1 -1.00178,0 0.5008924,0.5008924 0 1 1 1.00178,0 z"
       transform="matrix(1.1778434,0,0,1.1778434,-97.864073,151.55738)" />
    <path
       transform="matrix(1.1778434,0,0,1.1778434,-121.22581,151.55738)"
       d="m 424.03324,115.18364 a 0.5008924,0.5008924 0 1 1 -1.00178,0 0.5008924,0.5008924 0 1 1 1.00178,0 z"
       sodipodi:ry="0.5008924"
       sodipodi:rx="0.5008924"
       sodipodi:cy="115.18364"
       sodipodi:cx="423.53235"
       id="path4064-6"
       style="fill:#000000;fill-opacity:1;fill-rule:evenodd;stroke:none"
       sodipodi:type="arc" />
    <path
       sodipodi:type="arc"
       style="fill:#000000;fill-opacity:1;fill-rule:evenodd;stroke:none"
       id="path4066-0"
       sodipodi:cx="423.53235"
       sodipodi:cy="115.18364"
       sodipodi:rx="0.5008924"
       sodipodi:ry="0.5008924"
       d="m 424.03324,115.18364 a 0.5008924,0.5008924 0 1 1 -1.00178,0 0.5008924,0.5008924 0 1 1 1.00178,0 z"
       transform="matrix(1.1778434,0,0,1.1778434,-127.76153,151.55738)" />
    <path
       transform="matrix(1.1778434,0,0,1.1778434,-139.72051,151.55738)"
       d="m 424.03324,115.18364 a 0.5008924,0.5008924 0 1 1 -1.00178,0 0.5008924,0.5008924 0 1 1 1.00178,0 z"
       sodipodi:ry="0.5008924"
       sodipodi:rx="0.5008924"
       sodipodi:cy="115.18364"
       sodipodi:cx="423.53235"
       id="path4068-2"
       style="fill:#000000;fill-opacity:1;fill-rule:evenodd;stroke:none"
       sodipodi:type="arc" />
    <path
       sodipodi:type="arc"
       style="fill:#000000;fill-opacity:1;fill-rule:evenodd;stroke:none"
       id="path4070-2"
       sodipodi:cx="423.53235"
       sodipodi:cy="115.18364"
       sodipodi:rx="0.5008924"
       sodipodi:ry="0.5008924"
       d="m 424.03324,115.18364 a 0.5008924,0.5008924 0 1 1 -1.00178,0 0.5008924,0.5008924 0 1 1 1.00178,0 z"
       transform="matrix(1.1778434,0,0,1.1778434,-151.6795,151.55738)" />
    <path
       transform="matrix(1.1778434,0,0,1.1778434,-173.51159,151.55738)"
       d="m 424.03324,115.18364 a 0.5008924,0.5008924 0 1 1 -1.00178,0 0.5008924,0.5008924 0 1 1 1.00178,0 z"
       sodipodi:ry="0.5008924"
       sodipodi:rx="0.5008924"
       sodipodi:cy="115.18364"
       sodipodi:cx="423.53235"
       id="path4072-2"
       style="fill:#000000;fill-opacity:1;fill-rule:evenodd;stroke:none"
       sodipodi:type="arc" />
    <path
       sodipodi:type="arc"
       style="fill:#000000;fill-opacity:1;fill-rule:evenodd;stroke:none"
       id="path4074-2"
       sodipodi:cx="423.53235"
       sodipodi:cy="115.18364"
       sodipodi:rx="0.5008924"
       sodipodi:ry="0.5008924"
       d="m 424.03324,115.18364 a 0.5008924,0.5008924 0 1 1 -1.00178,0 0.5008924,0.5008924 0 1 1 1.00178,0 z"
       transform="matrix(1.1778434,0,0,1.1778434,-179.49109,151.55738)" />
    <path
       transform="matrix(1.1778434,0,0,1.1778434,-192.04107,151.55738)"
       d="m 424.03324,115.18364 a 0.5008924,0.5008924 0 1 1 -1.00178,0 0.5008924,0.5008924 0 1 1 1.00178,0 z"
       sodipodi:ry="0.5008924"
       sodipodi:rx="0.5008924"
       sodipodi:cy="115.18364"
       sodipodi:cx="423.53235"
       id="path4076-7"
       style="fill:#000000;fill-opacity:1;fill-rule:evenodd;stroke:none"
       sodipodi:type="arc" />
    <path
       sodipodi:type="arc"
       style="fill:#000000;fill-opacity:1;fill-rule:evenodd;stroke:none"
       id="path4078-3"
       sodipodi:cx="423.53235"
       sodipodi:cy="115.18364"
       sodipodi:rx="0.5008924"
       sodipodi:ry="0.5008924"
       d="m 424.03324,115.18364 a 0.5008924,0.5008924 0 1 1 -1.00178,0 0.5008924,0.5008924 0 1 1 1.00178,0 z"
       transform="matrix(1.1778434,0,0,1.1778434,-192.04107,143.07485)" />
    <path
       sodipodi:type="arc"
       style="fill:#000000;fill-opacity:1;fill-rule:evenodd;stroke:none"
       id="path4080-6"
       sodipodi:cx="423.53235"
       sodipodi:cy="115.18364"
       sodipodi:rx="0.5008924"
       sodipodi:ry="0.5008924"
       d="m 424.03324,115.18364 a 0.5008924,0.5008924 0 1 1 -1.00178,0 0.5008924,0.5008924 0 1 1 1.00178,0 z"
       transform="matrix(1.1778434,0,0,1.1778434,-192.04107,159.17081)" />
    <path
       sodipodi:type="arc"
       style="fill:#000000;fill-opacity:1;fill-rule:evenodd;stroke:none"
       id="path4082-1"
       sodipodi:cx="423.53235"
       sodipodi:cy="115.18364"
       sodipodi:rx="0.5008924"
       sodipodi:ry="0.5008924"
       d="m 424.03324,115.18364 a 0.5008924,0.5008924 0 1 1 -1.00178,0 0.5008924,0.5008924 0 1 1 1.00178,0 z"
       transform="matrix(1.1778434,0,0,1.1778434,-164.05565,151.55738)" />
    <path
       transform="matrix(1.1778434,0,0,1.1778434,-51.811538,151.55738)"
       d="m 424.03324,115.18364 a 0.5008924,0.5008924 0 1 1 -1.00178,0 0.5008924,0.5008924 0 1 1 1.00178,0 z"
       sodipodi:ry="0.5008924"
       sodipodi:rx="0.5008924"
       sodipodi:cy="115.18364"
       sodipodi:cx="423.53235"
       id="path4086-0"
       style="fill:#000000;fill-opacity:1;fill-rule:evenodd;stroke:none"
       sodipodi:type="arc" />
    <path
       id="path4090"
       style="fill:none;fill-opacity:0.39215686000000000;fill-rule:nonzero;stroke:#000000;stroke-width:0.39200099999999999;stroke-linecap:butt;stroke-linejoin:bevel;stroke-miterlimit:4;stroke-opacity:1;stroke-dasharray:none;stroke-dashoffset:0;marker:none;visibility:visible;display:inline;overflow:visible;enable-background:accumulate"
       d="m 446.95306,287.21802 -9.30756,-0.033 c 0.0389,8.22326 0.69135,16.6531 0.69135,16.6531"
       sodipodi:nodetypes="ccc" />
    <path
       style="fill:#2ea024;fill-opacity:0.39037434;fill-rule:nonzero;stroke:#000000;stroke-width:0.39222187;stroke-linecap:butt;stroke-linejoin:bevel;stroke-miterlimit:4;stroke-opacity:1;stroke-dasharray:none;stroke-dashoffset:0;marker:none;visibility:visible;display:inline;overflow:visible;enable-background:accumulate"
       d="m 455.98344,270.37489 c 0,0 -16.35488,-0.53108 -17.46063,4.99355 -0.60052,3.00033 -0.80508,7.36706 -0.8167,11.78344"
       id="path3573-4-0" />
  </g>
</svg>
